<svg id="图层_1" data-name="图层 1" xmlns="http://www.w3.org/2000/svg" viewBox="0 0 1415 1415"><title>Nangua-Wendang</title><circle cx="707.5" cy="707.5" r="707.5" style="fill:none"/><rect x="207.5" y="207.5" width="1000" height="1000" style="fill:#34c560"/><path d="M421.9083,284.2484l34.9147-35.7143q3.998,3.1983,11.4606,8.7953Q513.06,291.18,546.9083,323.9606l-32.516,33.3155H670.3092a382.7082,382.7082,0,0,0,61.3006-5.597v53.0384a362.2038,362.2038,0,0,0-60.2345-5.33H623.9339Q587.6845,512.396,534.3817,588.0869,626.3326,662.4467,750,689.6322A147.556,147.556,0,0,0,706.823,744.27,739.879,739.879,0,0,1,502.1322,625.9328q-73.03,65.8338-204.6908,125.5331A165.5916,165.5916,0,0,0,250,704.5576Q388.5883,666.709,466.6844,589.6855,399.2516,509.9968,357.1429,399.387H328.0917a517.0244,517.0244,0,0,0-61.5672,4.7974V351.6791a341.6315,341.6315,0,0,0,59.435,5.597H505.064Q460.8188,309.3018,421.9083,284.2484ZM413.9126,399.387q30.6462,79.4265,85.5544,150.5863,42.3774-60.7677,69.2963-150.5863Z" transform="translate(207.5 207.5)" style="fill:#fff"/></svg>